<svg width="391" height="391" viewBox="0 0 391 391" fill="none" xmlns="http://www.w3.org/2000/svg">
<g clip-path="url(#clip0_1_22)">
<path d="M195.5 134.406L0 0V182.878C0 186.369 0 189.592 0.252258 192.68C2.52258 244.509 22.7032 293.25 57.2626 330.041C90.1823 365.086 132.94 386.166 178.977 390.194C184.148 390.597 189.32 390.866 194.617 391H196.635C198.275 391 199.915 391 201.554 391C204.834 391 207.987 390.731 211.14 390.463C211.518 390.463 211.771 390.463 212.149 390.463C309.016 381.87 386.333 297.95 390.874 192.949C391 189.861 391.126 186.504 391.126 183.147V0L195.626 134.406H195.5Z" fill="#18181B"/>
<path d="M175.067 355.821C104.687 347.496 44.3974 285.596 33.9287 211.076C103.047 222.489 162.202 282.911 175.824 355.821C175.572 355.821 175.319 355.821 175.067 355.821Z" fill="#FED7AA"/>
<path d="M356.945 211.881C346.098 286.536 285.934 347.764 215.176 355.955C228.798 282.911 287.953 222.489 357.071 211.21C357.071 211.478 357.071 211.747 357.071 212.015L356.945 211.881Z" fill="#FED7AA"/>
<path d="M243.051 236.05C222.492 257.131 206.347 282.374 195.5 309.9C184.653 282.24 168.635 257.131 147.949 236.05C116.039 203.422 75.299 182.61 31.7845 176.568V62.1679L195.5 174.688L359.215 62.1679V176.568C315.701 182.61 274.835 203.422 243.051 236.05Z" fill="#EA580C"/>
</g>
<defs>
<clipPath id="clip0_1_22">
<rect width="391" height="391" fill="white"/>
</clipPath>
</defs>
</svg>
